<svg width="148" height="16" viewBox="0 0 148 16" fill="none" xmlns="http://www.w3.org/2000/svg">
<path d="M19.4957 0C12.7957 0 3.19572 1 0.495722 8C-2.20428 15 6.69572 16 13.3957 16C20.0957 16 29.6957 15 32.3957 8C35.0957 1 26.0957 0 19.4957 0ZM25.3957 8C23.6957 12.5 18.1957 13.1 14.4957 13.1C10.6957 13.1 5.69572 12.5 7.39572 8C9.09572 3.5 14.5957 2.9 18.2957 2.9C22.0957 2.9 27.0957 3.5 25.3957 8ZM93.0957 4.1C94.3957 1 90.1957 0.5 87.0957 0.5H67.8957L61.7957 15.5H81.4957C84.8957 15.5 89.7957 15 91.1957 11.6C92.2957 9 89.7957 8 87.0957 7.7V7.6C89.5957 7.3 92.1957 6.4 93.0957 4.1ZM84.6957 10.8C84.0957 12.3 82.1957 12.5 80.7957 12.5H69.5957L70.9957 9.1H82.0957C83.4957 9.1 85.2957 9.4 84.6957 10.8ZM86.1957 4.8C85.6957 6.1 83.9957 6.2 82.8957 6.2H72.1957L73.3957 3.3H83.9957C85.1957 3.4 86.6957 3.6 86.1957 4.8ZM63.7957 5.3C65.3957 1.1 60.0957 0.5 56.1957 0.5H37.7957L31.7957 15.5H38.3957L40.5957 10H45.8957L52.5957 15.5H60.5957L53.4957 10C57.9957 9.8 62.3957 8.8 63.7957 5.3ZM52.4957 7.1H41.7957L43.2957 3.3H53.9957C55.4957 3.3 57.4957 3.5 56.7957 5.2C56.1957 6.9 53.9957 7.1 52.4957 7.1ZM140.596 0.5H132.796L115.396 12.5H106.196C103.196 12.5 99.5957 12.1 99.7957 9.3H115.596L116.796 6.4H100.996C103.096 3.8 106.796 3.4 109.696 3.4H122.496L123.696 0.5H111.296C104.996 0.5 95.8957 1.4 93.3957 8C90.8957 14.6 99.2957 15.5 105.496 15.5H118.396L122.896 12.4H139.096L140.596 15.5H147.996L140.596 0.5ZM127.096 9.5L134.996 4L137.696 9.5H127.096Z" fill="#1B1B1B"/>
</svg>
